# xmcd
#
# Track frame offsets: 
#        150
#        13358
#        25030
#        37248
#        49877
#        63802
#        75791
#        86968
#        98325
#        109412
#        121018
#        133478
#        144614
#        157044
#        170443
#        183662
#        197325
#        209403
#        222295
#        234807
#        244609
#        254987
#        269553
#        280309
#        292028
#        303106
#        315641
#        329253
#
# Disc length: 4641 seconds
#
# Revision: 3
# Processed by: cddbd v1.5.2PL0 Copyright (c) Steve Scherf et al.
# Submitted via: ExactAudioCopyFreeDBPlugin 1.0
#
DISCID=a1121f1c
DTITLE=Various Artist - The Big Horn:  The History of the Honkin' and
DTITLE=Screamin' Saxophone [Proper Records]
DYEAR=2003
DGENRE=Rhythm and Blues
TTITLE0=Willis Jackson - On My Own
TTITLE1=Willis Jackson - Dance of the Lady Bug
TTITLE2=Willis Jackson - Later for the Gator
TTITLE3=Willis Jackson - Wine-O-Wine
TTITLE4=Willis Jackson - Good Gliding
TTITLE5=Willis Jackson - Gator's Groove
TTITLE6=Charlie Singleton - Elephant Rock
TTITLE7=Charlie Singleton - Earthquake
TTITLE8=Fred Jackson - Buck Fever
TTITLE9=Lynn Hope - Tenderly
TTITLE10=Lynn Hope - Song of the Wanderer
TTITLE11=Lynn Hope - More Bounce to the Ounce
TTITLE12=Julian Dash - Open Up Them Pearly Gates
TTITLE13=Julian Dash - Hot Rock
TTITLE14=Buddy Tate - Blowin' Awhile
TTITLE15=Buddy Tate - Blue Creek Hop
TTITLE16=Plas Johnson - Worrying Blues
TTITLE17=Al Sears - Castle Rock
TTITLE18=Al Sears - Marshall Plan
TTITLE19=Fats Noel - Ride Daddy Ride
TTITLE20=Fats Noel - Duck Soup
TTITLE21=Jimmy Jackson - Honkin'
TTITLE22=Paul Bascomb - Pink Cadillac
TTITLE23=Paul Bascomb - Mumbles Blues
TTITLE24=Joe Houston - Cornbread and Cabbage Greens
TTITLE25=Joe Houston - Jay's Boogie
TTITLE26=Jimmy Forrest - Night Train
TTITLE27=David Brooks - Flying Home
EXTD=
EXTT0=
EXTT1=
EXTT2=
EXTT3=
EXTT4=
EXTT5=
EXTT6=
EXTT7=
EXTT8=
EXTT9=
EXTT10=
EXTT11=
EXTT12=
EXTT13=
EXTT14=
EXTT15=
EXTT16=
EXTT17=
EXTT18=
EXTT19=
EXTT20=
EXTT21=
EXTT22=
EXTT23=
EXTT24=
EXTT25=
EXTT26=
EXTT27=
PLAYORDER=
